<?xml version="1.0" encoding="UTF-8" standalone="no"?>
<!-- Created with Inkscape (http://www.inkscape.org/) -->

<svg
   width="25"
   height="25"
   viewBox="0 0 6.6145832 6.6145833"
   version="1.1"
   id="svg1"
   xml:space="preserve"
   inkscape:version="1.4.2 (ebf0e940, 2025-05-08)"
   sodipodi:docname="artisan.svg"
   xmlns:inkscape="http://www.inkscape.org/namespaces/inkscape"
   xmlns:sodipodi="http://sodipodi.sourceforge.net/DTD/sodipodi-0.dtd"
   xmlns="http://www.w3.org/2000/svg"
   xmlns:svg="http://www.w3.org/2000/svg"><sodipodi:namedview
     id="namedview1"
     pagecolor="#ffffff"
     bordercolor="#000000"
     borderopacity="0.25"
     inkscape:showpageshadow="2"
     inkscape:pageopacity="0.0"
     inkscape:pagecheckerboard="0"
     inkscape:deskcolor="#d1d1d1"
     inkscape:document-units="mm"
     inkscape:zoom="6.956434"
     inkscape:cx="10.997014"
     inkscape:cy="40.466135"
     inkscape:window-width="1472"
     inkscape:window-height="792"
     inkscape:window-x="0"
     inkscape:window-y="38"
     inkscape:window-maximized="0"
     inkscape:current-layer="layer1" /><defs
     id="defs1" /><g
     inkscape:label="Camada 1"
     inkscape:groupmode="layer"
     id="layer1"><path
       style="fill:#000000;stroke-width:0.0243454"
       d="M 1.1146025,6.4093165 C 1.0256256,6.385281 0.95695271,6.3070752 0.94170858,6.2124174 0.93756547,6.1867157 0.93743037,6.1326228 0.94130634,6.058714 0.95437606,5.8096452 0.961087,5.6789488 0.9701514,5.4969932 0.98850989,5.1284387 1.0162038,4.65443 1.0219411,4.6105592 l 0.00347,-0.026509 -0.0273435,-0.00437 C 0.94896209,4.5718283 0.9035635,4.5327849 0.8933175,4.4895932 0.88809358,4.4675896 0.94803178,4.171644 1.0056386,3.9349649 1.0263334,3.8499383 1.0568672,3.7223994 1.0734919,3.6515446 1.0901166,3.5806893 1.1123183,3.4980786 1.1228291,3.4679653 1.1676693,3.3394995 1.2490257,3.1989171 1.3417227,3.0897185 1.4705235,2.9379891 1.6408193,2.8329681 1.8912439,2.7508301 c 0.070855,-0.023239 0.2215834,-0.072732 0.3349516,-0.1099834 0.1133681,-0.03725 0.2557532,-0.08161 0.3164111,-0.098577 l 0.1102872,-0.030848 0.00463,-0.111072 0.00463,-0.1110722 -0.05764,-0.057257 C 2.5172052,2.1452926 2.4463511,2.0326782 2.3971527,1.9024446 2.3769236,1.8488913 2.3754401,1.8469395 2.3415378,1.829189 2.2189644,1.7650131 2.1474937,1.5883819 2.1807037,1.4317052 2.1974968,1.3524763 2.2384055,1.2878802 2.3007883,1.2420871 l 0.031685,-0.023259 v -0.057678 c 0,-0.1215379 0.021881,-0.24441715 0.06414,-0.36021195 C 2.4190113,0.73957035 2.4679163,0.65443767 2.5264155,0.57498988 2.656416,0.39843537 2.8791645,0.2595817 3.105438,0.21404714 c 0.1042032,-0.0209709 0.2936464,-0.021125 0.3901197,-3.1385e-4 0.1920753,0.041424 0.3587828,0.12852286 0.4935207,0.25784746 0.082464,0.0791511 0.1369461,0.15239289 0.1853281,0.24914211 0.071385,0.14274969 0.098204,0.25297307 0.098295,0.40398384 l 4.86e-5,0.094798 0.031743,0.020369 c 0.078621,0.050451 0.1278613,0.1543981 0.1278613,0.2699176 0,0.1310627 -0.0666,0.2578423 -0.1658517,0.3157137 -0.036922,0.021527 -0.03926,0.024458 -0.056454,0.070769 -0.045165,0.1216421 -0.121043,0.2458307 -0.2011165,0.3291684 l -0.053239,0.055409 v 0.1132872 0.1132868 l 0.056362,0.01678 c 0.058096,0.017296 0.5442008,0.1714604 0.725434,0.2300669 0.1767265,0.057149 0.3358415,0.1439103 0.4505493,0.2456723 0.1239752,0.1099834 0.256142,0.3083288 0.3073983,0.4613191 0.030711,0.091668 0.1444668,0.5714168 0.190053,0.8015258 0.045298,0.2286535 0.045478,0.2320573 0.014346,0.2716336 -0.014748,0.018748 -0.070779,0.047741 -0.092461,0.047843 -0.012152,4.85e-5 -0.013213,0.00324 -0.011275,0.03388 0.006,0.095021 0.021339,0.37263 0.024646,0.4460653 0.00208,0.046056 0.00655,0.1286666 0.00995,0.1835793 0.0034,0.054912 0.00901,0.1578137 0.012463,0.2286688 0.00346,0.070855 0.014138,0.2643381 0.023733,0.4299624 0.017025,0.2938039 0.017168,0.3020293 0.00587,0.337859 -0.021495,0.06819 -0.071651,0.1272124 -0.1324861,0.1559083 l -0.035428,0.016711 -2.1804053,0.0012 C 1.6117358,6.4170429 1.1377167,6.4155836 1.1145907,6.4093331 Z M 1.6200533,6.1910512 c 0.00284,-0.014588 0.018422,-0.3321415 0.029805,-0.6070995 0.015919,-0.3845334 0.019591,-0.463212 0.029646,-0.6353543 0.00593,-0.1014524 0.00905,-0.1889625 0.00694,-0.1944671 -0.00227,-0.00591 -0.029926,-0.018058 -0.067574,-0.029676 -0.060172,-0.018568 -0.3604472,-0.090605 -0.3776746,-0.090605 -0.00935,0 -0.0141,0.067378 -0.042199,0.5990479 -0.010391,0.1966232 -0.02068,0.3908306 -0.022865,0.4315721 -0.00218,0.040742 -0.00954,0.1566864 -0.016347,0.2576552 -0.00681,0.1009685 -0.012408,0.2044193 -0.012445,0.2298902 l -7.05e-5,0.046311 0.024155,0.00254 c 0.013285,0.0014 0.1190298,0.00302 0.2349874,0.00361 l 0.2108273,0.00108 z M 2.1134708,5.8526336 V 5.4997228 l 0.014493,-0.028366 c 0.022734,-0.044498 0.03969,-0.049985 0.1875476,-0.060696 0.070164,-0.00508 0.1285643,-0.010234 0.1297786,-0.01145 0.00122,-0.00122 0.00426,-0.044466 0.00677,-0.096114 l 0.00457,-0.093906 -0.063686,-0.00422 c -0.035027,-0.00231 -0.081895,-0.00423 -0.1041512,-0.00425 -0.074585,-7.3e-5 -0.1044657,-0.023584 -0.1044657,-0.08224 0,-0.037873 0.016119,-0.076208 0.043598,-0.1036868 l 0.016689,-0.016689 0.00225,-0.3190087 c 0.00125,-0.1754548 0.00522,-0.3432543 0.00884,-0.3728878 0.017696,-0.1449489 0.081125,-0.2481949 0.1843216,-0.3000278 0.046715,-0.023464 0.09136,-0.031082 0.1659527,-0.028321 0.060538,0.00225 0.069732,0.00437 0.1144056,0.026447 0.090144,0.044552 0.153935,0.1228316 0.1785612,0.2191183 0.01133,0.044305 0.012455,0.07745 0.013781,0.4066359 l 0.00146,0.3583997 0.022423,0.01064 c 0.046259,0.021949 0.061375,0.1084008 0.027317,0.1562293 -0.027231,0.03824 -0.053723,0.045058 -0.1757194,0.045218 l -0.1078884,1.49e-4 v 0.1030619 0.1030619 l 0.3107965,-1.98e-5 c 0.170938,-1.08e-5 0.3607975,-0.00191 0.4219101,-0.00423 l 0.1111137,-0.00422 V 5.287017 5.1756833 L 3.4838802,5.1451728 C 3.3382665,5.0348226 3.2676198,4.938159 3.2161008,4.7787858 3.1848462,4.6820994 3.1741567,4.6140897 3.1781343,4.5372341 3.1860443,4.3843866 3.2472243,4.2394599 3.347115,4.136939 3.4830074,3.9974691 3.5920721,3.9707251 3.644634,4.063983 3.667871,4.10521 3.672487,4.144939 3.673155,4.3094114 l 6.278e-4,0.1554395 0.026623,0.014657 c 0.014642,0.00806 0.0463,0.028808 0.070348,0.046103 0.072405,0.052073 0.061638,0.052806 0.1582018,-0.010765 l 0.084716,-0.05577 V 4.29915 c 0,-0.1409411 0.00151,-0.1648054 0.012697,-0.2010282 0.018742,-0.060686 0.058672,-0.095524 0.1094815,-0.095524 0.057481,0 0.1771312,0.082931 0.2412426,0.1672086 0.062936,0.082732 0.1003505,0.1638472 0.1204146,0.2610589 0.019858,0.096214 0.015556,0.1712454 -0.017339,0.3023515 C 4.4404553,4.8915004 4.3428511,5.0296102 4.1977838,5.13279 l -0.051,0.036274 0.00151,0.1140458 c 8.275e-4,0.062725 0.00349,0.1157845 0.00591,0.1179099 0.00242,0.00211 0.058235,0.00686 0.1240476,0.010528 0.1340198,0.00747 0.1499791,0.012174 0.1744124,0.051475 l 0.015116,0.024312 0.00183,0.3591067 0.00183,0.3591066 h 0.1543868 0.1543867 l 7.3e-5,-0.020933 C 4.7803575,6.163646 4.7750363,6.0572467 4.7576873,5.7321075 4.7525773,5.6364535 4.7467713,5.519059 4.7447683,5.4712316 4.7427683,5.4234036 4.7368583,5.3016626 4.7316433,5.200694 4.7264286,5.0997253 4.7177974,4.9113149 4.7124672,4.7820043 4.7071352,4.6526939 4.6999244,4.5005162 4.6964406,4.4438322 4.692955,4.3871482 4.6873447,4.2795302 4.6839689,4.2046811 4.6768806,4.0475269 4.6683134,4.0118934 4.6219871,3.9469378 c -0.030182,-0.042319 -0.0776,-0.087461 -0.1090793,-0.1038419 -0.012614,-0.00657 -0.047286,-0.011632 -0.099841,-0.014594 -0.126203,-0.00711 -2.2886581,-0.0012 -2.3084096,0.0063 -0.029661,0.011275 -0.1102535,0.096921 -0.1321304,0.1404129 -0.031546,0.062714 -0.03877,0.1073667 -0.045745,0.2827948 -0.00742,0.186632 -0.029058,0.6269298 -0.038571,0.7848633 -0.00363,0.060227 -0.010861,0.2037085 -0.016075,0.3188482 -0.00521,0.1151394 -0.013737,0.2789114 -0.01894,0.3639377 -0.017217,0.2813258 -0.025197,0.4587379 -0.021113,0.4693806 0.00355,0.00926 0.020453,0.010503 0.1427215,0.010503 h 0.1386913 z m 2.1456981,0.1950971 c 0.00217,-0.085027 0.00242,-0.2173988 5.992e-4,-0.2941611 l -0.00334,-0.1395684 -0.9687909,-6.563e-4 -0.9687907,-6.562e-4 0.00375,0.1853209 c 0.00205,0.1019269 0.00543,0.2350465 0.00748,0.2958216 l 0.00373,0.1105005 0.9607081,-9.997e-4 0.9607088,-9.998e-4 z m 1.1214421,0.1535855 0.08188,-0.00418 0.00452,-0.029615 C 5.4715787,6.1376401 5.4678405,6.0603141 5.4438595,5.6902314 5.4366325,5.5786346 5.4204834,5.3235561 5.4079727,5.1233903 5.3954615,4.9232246 5.3834268,4.7309533 5.3812298,4.6961208 l -0.00399,-0.063332 -0.023151,0.0041 c -0.045723,0.00809 -0.2822382,0.061571 -0.3516602,0.079519 l -0.070855,0.018317 0.00103,0.1186478 c 5.706e-4,0.065257 0.0056,0.1969108 0.011219,0.2925649 0.00561,0.095654 0.016029,0.3217466 0.023148,0.5024274 0.00712,0.1806805 0.015832,0.3748882 0.019367,0.4315722 0.00353,0.056684 0.00643,0.1081345 0.00644,0.1143342 9.7e-6,0.01042 0.011584,0.01127 0.1529932,0.011248 0.08414,-1.42e-5 0.1898286,-0.00191 0.2348627,-0.00421 z M 3.9340217,5.2795968 C 3.9297345,5.1462395 3.9297615,5.1458611 3.9458278,5.1117134 3.9730129,5.053936 4.0015031,5.020351 4.0523245,4.9861755 4.1545031,4.9174648 4.2419692,4.8064594 4.2741089,4.704704 4.29783,4.6296047 4.305293,4.5501384 4.2937589,4.4954951 4.2770451,4.4163176 4.2409208,4.3246627 4.2264262,4.3246627 c -0.00349,0 -0.00604,0.040788 -0.00604,0.09664 0,0.1202221 -0.00669,0.1395378 -0.062707,0.1811341 -0.020745,0.015404 -0.056561,0.042943 -0.079589,0.061197 C 4.0308872,4.7010488 3.9285474,4.7645018 3.8848455,4.783449 3.8410505,4.802437 3.8113765,4.796437 3.7462449,4.755422 3.6704279,4.70768 3.5099709,4.5876978 3.4928757,4.5659649 c -0.026763,-0.034022 -0.035313,-0.081119 -0.030298,-0.166862 0.00249,-0.04265 0.00318,-0.076122 0.00151,-0.074382 -0.012311,0.01291 -0.043449,0.075309 -0.054722,0.1096619 -0.033848,0.1031463 -0.029025,0.1988427 0.015687,0.3112491 0.038663,0.097199 0.064853,0.1309041 0.161682,0.2080733 0.097077,0.077367 0.1263267,0.1073653 0.1458443,0.1495756 0.012934,0.02797 0.013641,0.038043 0.011712,0.1660959 -0.00191,0.1273656 -0.00129,0.1365201 0.00966,0.1393525 0.00645,0.00166 0.050561,0.00337 0.098036,0.00378 l 0.086318,7.419e-4 z M 2.6950099,4.9881922 c 0.00277,-4.89e-5 0.00422,-0.1631149 0.00322,-0.362395 l -0.00183,-0.3623274 -0.015467,-0.021685 c -0.028806,-0.040388 -0.1008581,-0.058076 -0.1510881,-0.037088 -0.027993,0.011698 -0.059376,0.050602 -0.067521,0.083705 -0.00367,0.014933 -0.00857,0.1752678 -0.011145,0.3656043 l -0.0046,0.3390063 0.1216892,-0.00237 c 0.066929,-0.00131 0.1239558,-0.0024 0.1267254,-0.00245 z M 5.1280345,4.4728864 c 0.1758227,-0.041359 0.3212532,-0.078558 0.3485,-0.089142 l 0.016768,-0.00651 -0.033759,-0.1663837 C 5.4409749,4.1193358 5.4154064,4.0038822 5.4027223,3.9542836 5.3900399,3.9046852 5.3678287,3.8104799 5.3533673,3.7449391 5.3115623,3.5554717 5.2753444,3.4590948 5.2022404,3.342785 5.1336334,3.2336301 5.0438054,3.1417538 4.9416242,3.0762248 c -0.04006,-0.02569 -0.146974,-0.07713 -0.2016839,-0.097035 l -0.037038,-0.013476 2.482e-4,0.3815613 2.482e-4,0.3815609 0.020417,0.012882 c 0.026015,0.016417 0.082607,0.086101 0.1073168,0.1321444 0.023682,0.044125 0.050185,0.12426 0.058312,0.1763003 0.00339,0.021664 0.00914,0.1031595 0.01278,0.1811003 0.00365,0.077941 0.0085,0.1753624 0.010796,0.216493 l 0.00417,0.074783 0.023296,-0.0055 c 0.012814,-0.00303 0.09721,-0.022894 0.1875505,-0.044145 z m -3.4306694,0.011202 c 0.00193,-0.0186 0.00661,-0.1062826 0.010395,-0.1948514 0.00841,-0.1968401 0.014622,-0.2477018 0.03926,-0.3216581 0.028759,-0.086328 0.059071,-0.1384927 0.1155593,-0.1988692 l 0.050482,-0.053956 0.0046,-0.3748384 0.0046,-0.3748382 -0.047718,0.017062 C 1.8186604,3.0021201 1.7066868,3.0582331 1.6561295,3.0915943 1.5605715,3.1546503 1.4935359,3.2224953 1.4274553,3.3230319 1.3404175,3.4554524 1.2956317,3.582733 1.243868,3.8447829 1.232672,3.9014669 1.210471,4.0000202 1.194534,4.0637897 c -0.015937,0.06377 -0.037005,0.1537279 -0.046818,0.199907 -0.00981,0.046179 -0.021177,0.090193 -0.025251,0.097808 -0.00988,0.018466 -0.00941,0.021097 0.00386,0.021339 0.0062,1.219e-4 0.1330144,0.030298 0.28181,0.067076 0.1487959,0.036778 0.2739524,0.067121 0.278126,0.067428 0.00453,3.424e-4 0.00901,-0.013081 0.011099,-0.033259 z m 0.6167903,-0.874417 h 0.056971 V 3.2163133 c 0,-0.3716279 -6.278e-4,-0.39317 -0.011273,-0.3899568 -0.037809,0.011407 -0.1950928,0.054613 -0.2124607,0.058362 l -0.02083,0.00449 -0.00171,0.3643303 -0.00171,0.3643303 0.067027,-0.00411 c 0.036865,-0.00225 0.092663,-0.00411 0.1239967,-0.00411 z M 4.0345423,3.3292259 c 8.559e-4,-0.1575175 0.00157,-0.3506706 0.00159,-0.4292292 l 7.3e-5,-0.1428335 -0.035427,-0.00827 c -0.044848,-0.010462 -0.057973,-0.010742 -0.057973,-0.00122 0,0.018677 -0.053815,0.1154684 -0.085347,0.1535051 C 3.7741183,3.0017134 3.611845,3.0923961 3.459706,3.1234533 3.388366,3.1380163 3.2573821,3.1384753 3.1786322,3.124426 2.9580468,3.0851016 2.7795935,2.9664991 2.7024708,2.8079645 c -0.022826,-0.04692 -0.032628,-0.06111 -0.040621,-0.058805 -0.00579,0.00168 -0.027647,0.00505 -0.048559,0.0075 l -0.038023,0.00447 0.00421,0.116112 c 0.00231,0.063862 0.00421,0.2562271 0.00421,0.4274785 v 0.3113661 l 0.7246466,-2.434e-4 0.7246548,-2.433e-4 z m -0.013914,0.1993917 c 3.137e-4,-0.0075 0.00183,-0.00903 0.00389,-0.00389 0.00186,0.00465 0.00163,0.010206 -5.136e-4,0.012346 -0.00214,0.00214 -0.00367,-0.00166 -0.00339,-0.00846 z M 4.4923917,3.2574268 c 0.00228,-0.1972771 0.00317,-0.3596693 0.00197,-0.360871 -0.0012,-0.0012 -0.0526,-0.016677 -0.1142181,-0.034391 -0.061615,-0.017713 -0.1171033,-0.033782 -0.1233029,-0.035708 -0.010651,-0.00331 -0.011273,0.01818 -0.011273,0.3896237 v 0.3931247 l 0.062803,0.00211 c 0.034542,0.00117 0.089142,0.00271 0.1213338,0.00346 l 0.05853,0.00134 z M 3.4440106,2.9076726 C 3.5679664,2.8764839 3.6769883,2.7997287 3.7202993,2.713155 L 3.7431383,2.6675 V 2.5420692 c 0,-0.097922 -0.00177,-0.1246608 -0.00805,-0.1219211 -0.00443,0.00194 -0.035055,0.015347 -0.068059,0.029813 C 3.4235135,2.5567065 3.1651998,2.5522988 2.9082531,2.4370133 l -0.041906,-0.018803 0.002,0.1238985 c 0.00191,0.1191792 0.00266,0.1253167 0.019442,0.1611373 0.035186,0.075091 0.1313658,0.1537607 0.2311516,0.1890694 0.1017506,0.036005 0.2206799,0.041621 0.3250759,0.015356 z M 3.418589,2.3049841 C 3.6159331,2.2705702 3.8179722,2.147161 3.916166,2.0010548 3.9984418,1.8786332 4.040455,1.7461273 4.0523873,1.5714225 4.0603403,1.4549227 4.0602502,1.1645239 4.0522412,1.082046 4.0348537,0.90324379 3.9548832,0.73913402 3.8255417,0.61683768 3.7419031,0.53775505 3.6497798,0.48411293 3.5283385,0.44378087 3.4407748,0.41470007 3.3722645,0.40558216 3.2765307,0.41026851 2.9609165,0.4257185 2.686346,0.63090274 2.5881825,0.92466783 2.5583305,1.0140038 2.5547115,1.0603053 2.5547815,1.3519693 c 4.86e-5,0.2337391 0.00166,0.2792994 0.01181,0.3349516 0.02948,0.1617088 0.095779,0.2983033 0.1921032,0.3957836 0.1709214,0.1729729 0.4341703,0.2616444 0.6599054,0.2222796 z"
       id="path1" /></g></svg>
