<?xml version="1.0" encoding="UTF-8" standalone="no"?>
<!-- Created with Inkscape (http://www.inkscape.org/) -->

<svg
   width="512"
   height="512"
   viewBox="0 0 512 512"
   version="1.1"
   id="svg1"
   xml:space="preserve"
   inkscape:version="1.4.2 (ebf0e940, 2025-05-08)"
   sodipodi:docname="artisan.svg"
   xmlns:inkscape="http://www.inkscape.org/namespaces/inkscape"
   xmlns:sodipodi="http://sodipodi.sourceforge.net/DTD/sodipodi-0.dtd"
   xmlns="http://www.w3.org/2000/svg"
   xmlns:svg="http://www.w3.org/2000/svg"><sodipodi:namedview
     id="namedview1"
     pagecolor="#ffffff"
     bordercolor="#000000"
     borderopacity="0.25"
     inkscape:showpageshadow="2"
     inkscape:pageopacity="0.0"
     inkscape:pagecheckerboard="0"
     inkscape:deskcolor="#d1d1d1"
     inkscape:document-units="px"
     inkscape:zoom="0.39212273"
     inkscape:cx="335.35419"
     inkscape:cy="36.978219"
     inkscape:window-width="1400"
     inkscape:window-height="834"
     inkscape:window-x="0"
     inkscape:window-y="38"
     inkscape:window-maximized="0"
     inkscape:current-layer="layer1" /><defs
     id="defs1" /><g
     inkscape:label="Camada 1"
     inkscape:groupmode="layer"
     id="layer1"
     transform="translate(-277.75211,-309.73535)"><path
       style="fill:#000000;stroke-width:0.875938"
       d="m 361.98974,791.7685 -2.15002,-2.15004 v -86.21339 -86.21341 l -2.65788,-1.10092 c -4.39245,-1.81942 -9.36396,-8.23013 -10.57335,-13.63426 -1.73607,-7.75761 0.002,-13.53124 5.82603,-19.35548 2.56472,-2.56472 5.25595,-4.66313 5.9805,-4.66313 1.75025,0 2.05396,-2.8242 3.15561,-29.34391 0.50031,-12.04414 1.14491,-24.95327 1.43242,-28.68696 l 0.52276,-6.78851 h 6.42666 c 3.53467,0 6.60088,0.29563 6.81378,0.65695 0.21291,0.36133 -0.33953,15.24132 -1.22766,33.06665 -0.88813,17.82533 -1.63032,33.90575 -1.64933,35.73427 -0.0441,4.24187 -3.16836,7.62464 -7.04204,7.62464 -3.60107,0 -7.0075,3.40643 -7.0075,7.0075 0,1.70665 0.79474,3.50219 2.15002,4.85747 l 2.15004,2.15003 h 29.38372 29.38373 v -29.30501 -29.30501 l -2.19406,-3.23311 c -2.61298,-3.85046 -4.81344,-10.81712 -4.81344,-15.23938 0,-7.68408 5.17155,-18.07408 10.95743,-22.01425 l 3.04559,-2.07403 0.006,-31.63249 0.006,-31.6325 -22.03836,6.93131 c -12.12109,3.81223 -22.70791,7.28966 -23.52626,7.72763 -4.02733,2.15536 -4.58181,4.68145 -5.51452,25.12257 l -0.89167,19.54176 h -6.86226 -6.86225 l 0.004,-4.16071 c 0.003,-2.28838 0.41219,-11.62825 0.91046,-20.75526 0.72795,-13.33381 1.25224,-17.37857 2.66818,-20.58453 1.93745,-4.38675 5.92849,-8.93259 9.99389,-11.38315 1.44529,-0.8712 13.76317,-5.04722 27.37305,-9.28004 l 24.74523,-7.69603 v -2.82826 c 0,-5.28883 1.73854,-6.28034 18.39546,-10.49113 8.43048,-2.13119 16.23294,-3.88468 17.33881,-3.89665 1.10587,-0.012 2.98618,0.95375 4.17845,2.14603 l 2.16778,2.16777 4.07431,-1.51276 4.07431,-1.51275 6.80547,-30.64976 c 5.67248,-25.54714 7.12189,-30.90598 8.70607,-32.18878 1.7468,-1.41446 4.93322,-1.53902 39.37185,-1.53902 34.43862,0 37.62502,0.12456 39.37182,1.53902 1.58422,1.2828 3.03363,6.64164 8.70612,32.18878 l 6.80542,30.64976 4.07433,1.51275 4.07434,1.51276 2.16777,-2.16777 c 1.19224,-1.19228 3.07253,-2.15799 4.1784,-2.14603 1.10587,0.012 8.90837,1.76546 17.33883,3.89665 16.66182,4.21202 18.39548,5.20153 18.39548,10.49935 v 2.83648 l 24.74524,7.67447 c 13.60988,4.22096 25.92775,8.39328 27.37305,9.27182 4.11252,2.49983 8.06554,7.03038 10.04534,11.5129 1.66586,3.77151 2.02893,8.70042 4.45239,60.43969 2.95322,63.05175 3.00893,63.77878 4.8837,63.77878 0.72458,0 3.41572,2.09841 5.98046,4.66313 5.82429,5.82424 7.56215,11.59787 5.82604,19.35548 -1.20941,5.40413 -6.18088,11.81484 -10.57335,13.63426 l -2.65786,1.10092 v 25.29592 25.29593 h -7.0075 -7.0075 V 643.25725 618.731 H 671.53935 646.8796 l 0.5698,9.97649 c 1.62845,28.51274 9.01988,52.67139 25.0872,81.99696 l 2.63964,4.81766 1.7e-4,32.1907 1.8e-4,32.19071 h 10.51125 10.51125 v -49.05251 -49.0525 h 7.0075 7.0075 v 53.90998 53.90997 l -2.14999,2.15004 -2.15007,2.15002 H 535.02722 364.13978 Z m 32.88748,-44.34083 v -32.47584 l 3.39794,-5.84643 c 14.36115,-24.70951 22.72776,-52.35762 24.32926,-80.39791 l 0.56979,-9.97649 h -24.65974 -24.65975 v 80.58626 80.58626 h 10.51125 10.51125 z m 35.03751,-3.91537 v -36.39123 l 2.15002,-2.15003 2.15003,-2.15003 h 22.37622 22.37623 v -7.0075 -7.0075 h -8.36122 c -7.70944,0 -8.52883,-0.1676 -10.51125,-2.15003 -2.09279,-2.09279 -2.15003,-2.50198 -2.15003,-15.36872 0,-12.63683 0.0889,-13.30764 2.02062,-15.23933 1.11135,-1.11135 2.50193,-2.18106 3.0902,-2.37715 0.82506,-0.27501 0.66351,-3.90822 -0.70673,-15.89362 -2.36971,-20.72789 -2.31465,-26.17458 0.32183,-31.83675 4.52185,-9.7112 12.49864,-14.76521 23.30408,-14.76521 10.80544,0 18.78224,5.05401 23.30404,14.76521 2.63027,5.64879 2.68177,10.74295 0.31998,31.63991 -1.37373,12.15455 -1.53446,15.81394 -0.7067,16.08985 0.58933,0.19642 1.98067,1.26641 3.09206,2.37776 1.9317,1.93169 2.02061,2.6025 2.02061,15.23933 0,12.86674 -0.0569,13.27593 -2.14999,15.36872 -1.98242,1.98243 -2.80186,2.15003 -10.51128,2.15003 h -8.36121 v 7.0075 7.0075 h 31.53373 31.53376 v -10.07328 c 0,-5.87654 -0.35161,-10.07328 -0.84388,-10.07328 -0.46416,0 -3.35896,-2.35271 -6.43289,-5.22824 -17.98422,-16.82332 -18.2379,-44.01636 -0.56804,-60.87062 l 5.08692,-4.85209 h 6.23641 c 5.4535,0 6.50638,0.26993 8.38649,2.15003 2.04067,2.04067 2.14999,2.67762 2.14999,12.52333 v 10.3733 l 3.50375,3.42131 3.50375,3.42133 3.50375,-3.42133 3.50375,-3.42131 v -10.3733 c 0,-9.84571 0.10932,-10.48266 2.15007,-12.52333 1.88003,-1.8801 2.93291,-2.15003 8.38641,-2.15003 h 6.23641 l 5.2247,4.98356 c 17.34707,16.54624 17.0899,44.09219 -0.56585,60.60822 -3.15092,2.94754 -6.1087,5.35917 -6.57286,5.35917 -0.49228,0 -0.84388,4.19674 -0.84388,10.07328 v 10.07328 h 18.87251 c 18.86954,0 18.87278,3.4e-4 21.02251,2.15003 l 2.14998,2.15003 v 36.39123 36.39122 h 10.51126 10.51125 v -30.6882 -30.6882 l -3.81471,-6.75814 c -12.37831,-21.92907 -20.73984,-48.86728 -23.28417,-75.01441 -0.51208,-5.26265 -0.93113,-25.75959 -0.93113,-45.54875 v -35.9803 l -6.78851,-0.006 c -5.47925,-0.004 -7.73225,-0.4472 -11.68194,-2.29479 -6.18255,-2.89209 -10.93959,-7.62482 -13.67952,-13.60957 l -2.14,-4.67442 h -14.38877 -14.38876 v -7.00751 -7.0075 h 14.015 14.015 V 473.93159 427.2376 l -5.47461,-1.77786 -5.47461,-1.77786 -6.18482,5.7699 c -14.02061,13.08004 -30.88871,19.28744 -49.43722,18.19272 -10.83132,-0.63926 -17.01009,-2.3104 -27.0123,-7.3058 -5.86826,-2.93079 -10.07613,-5.85954 -14.89094,-10.36438 l -6.71128,-6.2792 -5.47461,1.77123 -5.47461,1.77125 v 46.69399 46.69401 h 42.04499 42.04501 v 7.0075 7.00751 h -42.41877 -42.41874 l -2.14002,4.67442 c -2.73991,5.98475 -7.49698,10.71748 -13.67953,13.60957 -3.94968,1.84759 -6.20263,2.29016 -11.68192,2.29479 l -6.78852,0.006 v 35.9803 c 0,19.78916 -0.419,40.2861 -0.93111,45.54875 -2.5463,26.16711 -10.50713,51.86162 -23.14918,74.71675 l -3.94971,7.14057 v 30.64581 30.64582 h 10.51125 10.51125 z m 98.10499,18.87247 v -17.51875 h -21.0225 -21.02249 v -7.00751 -7.0075 h 70.075 70.075 v -7.0075 -7.0075 h -91.09751 -91.09749 v 7.0075 7.0075 h 14.015 14.015 v 7.0075 7.00751 h -14.015 -14.015 v 17.51875 17.51875 h 42.045 42.04499 z m 98.10501,0 v -17.51875 h -42.045 -42.04501 v 17.51875 17.51875 h 42.04501 42.045 z m -42.045,-72.19321 c 0,-6.9462 0.24342,-13.26384 0.54098,-14.0392 0.29755,-0.77535 3.20987,-3.13622 6.47177,-5.24636 14.32202,-9.26487 18.23317,-26.41857 9.09119,-39.87227 l -2.08894,-3.07409 v 7.38399 7.38399 l -9.02417,9.0242 c -12.10222,12.1022 -11.89445,12.1022 -23.99666,0 l -9.02417,-9.0242 v -7.38399 -7.38399 l -2.31861,3.41216 c -4.66323,6.86251 -5.92213,16.07462 -3.26611,23.89898 2.25957,6.65649 6.11991,11.45172 12.58696,15.63522 3.26199,2.11014 6.17431,4.47101 6.47178,5.24636 0.29755,0.77536 0.54098,7.093 0.54098,14.0392 v 12.62945 h 7.0075 7.0075 z m -84.08999,-18.80934 c 0,-2.9009 -0.32464,-3.49027 -2.17877,-3.95563 -1.19832,-0.30076 -2.82749,-1.53691 -3.62038,-2.74701 -1.3498,-2.06007 -1.28914,-3.57251 0.95245,-23.74905 1.31674,-11.85188 2.39407,-22.84042 2.39407,-24.41897 0,-8.99441 -9.85802,-14.69755 -17.42736,-10.08223 -3.7772,2.3031 -5.62079,5.35091 -5.67595,9.38341 -0.0252,1.84593 1.03693,13.10108 2.36039,25.01145 2.2532,20.27747 2.31457,21.79519 0.96468,23.85539 -0.79289,1.2101 -2.42206,2.44625 -3.62037,2.74701 -1.85414,0.46536 -2.17877,1.05473 -2.17877,3.95563 v 3.40879 h 14.015 14.01501 z m 208.07501,-68.81625 c 4.34483,-4.34482 1.26608,-11.86497 -4.85751,-11.86497 -3.67491,0 -6.99988,-3.39831 -7.03176,-7.18667 -0.0131,-1.58763 -1.34492,-29.92651 -2.95901,-62.97527 -3.13401,-64.16593 -3.02198,-63.19686 -7.58553,-65.6392 -0.85877,-0.45958 -11.44553,-3.93749 -23.52628,-7.7287 l -21.96493,-6.89311 0.009,31.63358 0.009,31.63358 3.04564,2.07403 c 5.78583,3.94017 10.95745,14.33017 10.95745,22.01425 0,4.42226 -2.20053,11.38892 -4.81345,15.23938 l -2.19405,3.23311 V 575.41099 604.716 H 676.537 705.92076 Z M 449.47337,540.4537 c 8.99992,-3.76041 11.19392,-15.55938 4.19472,-22.55858 -9.84124,-9.84124 -25.96784,-1.02649 -23.37802,12.77836 1.54707,8.24662 11.14382,13.13932 19.1833,9.78022 z m 182.195,0 c 8.99991,-3.76041 11.19395,-15.55938 4.19477,-22.55858 -9.84124,-9.84124 -25.96787,-1.02649 -23.37807,12.77836 1.54708,8.24662 11.14385,13.13932 19.1833,9.78022 z M 457.94473,463.79044 v -39.31679 l -7.0075,1.75982 -7.0075,1.75983 v 35.80509 35.8051 l 1.97086,0.0384 c 1.08397,0.0211 3.94172,0.75674 6.35055,1.63479 2.40883,0.87804 4.67531,1.64913 5.03664,1.71354 0.36132,0.0644 0.65695,-17.57547 0.65695,-39.19971 z m 162.70084,36.76173 5.47005,-1.38665 0.009,-35.58611 V 427.9933 l -7.0075,-1.75983 -7.0075,-1.75982 v 39.41051 c 0,37.20811 0.0858,39.37263 1.53289,38.73259 0.84309,-0.37286 3.99445,-1.30193 7.00295,-2.06458 z M 547.24401,432.5512 c 7.42226,-1.74943 15.17886,-5.63796 21.57846,-10.81774 8.57018,-6.93657 8.46813,-4.7384 1.64685,-35.48906 l -5.9428,-26.79093 h -29.4993 -29.49924 l -5.91297,26.65612 c -3.49461,15.754 -5.6726,27.41345 -5.32525,28.50783 0.84098,2.64971 10.99158,10.75331 17.45583,13.93567 10.56495,5.20108 23.983,6.71232 35.49842,3.99811 z"
       id="path1" /></g></svg>
